<svg width="73" height="85" viewBox="0 0 73 85" fill="none" xmlns="http://www.w3.org/2000/svg">
<circle cx="34.5" cy="34.5" r="34.5" fill="#F4C53B"/>
<path d="M49.14 76H46.14V79H49.14V76ZM49.14 33.75L51.2976 31.6656L46.14 26.327V33.75H49.14ZM52.845 37.585V40.585H59.9147L55.0026 35.5006L52.845 37.585ZM39.52 37.585H36.52V40.585H39.52V37.585ZM39.52 30.5V27.5H36.52V30.5H39.52ZM57.59 30.5H60.59V27.5H57.59V30.5ZM57.59 76V79H60.59V76H57.59ZM52.14 76V33.75H46.14V76H52.14ZM46.9824 35.8344L50.6874 39.6694L55.0026 35.5006L51.2976 31.6656L46.9824 35.8344ZM52.845 34.585H39.52V40.585H52.845V34.585ZM42.52 37.585V30.5H36.52V37.585H42.52ZM39.52 33.5H57.59V27.5H39.52V33.5ZM54.59 30.5V76H60.59V30.5H54.59ZM57.59 73H49.14V79H57.59V73Z" fill="#292D33"/>
</svg>
