<svg width="105" height="108" viewBox="0 0 105 94" fill="none" xmlns="http://www.w3.org/2000/svg">
<path fill-rule="evenodd" clip-rule="evenodd" d="M73.6738 36.6426L73.9311 45.3239L76.7614 48.7836L77.9193 30.8407L59.3722 27.7678L62.4812 31.5713L71.2938 33.8061L57.957 45.0876L60.0154 47.5373L73.6738 36.6426Z" fill="#F4C53B"/>
<path d="M29.3537 63.3744C45.5653 63.3744 58.7074 50.2036 58.7074 33.9566C58.7074 17.7096 45.5653 4.53882 29.3537 4.53882C13.1421 4.53882 0 17.7096 0 33.9566C0 50.2036 13.1421 63.3744 29.3537 63.3744Z" fill="#F4C53B"/>
<path fill-rule="evenodd" clip-rule="evenodd" d="M17.9035 54.2632C20.4122 57.9807 25.7298 71.0457 25.5582 74.8062C22.7708 76.3319 21.1198 78.7816 16.6814 78.8245C13.5723 74.7632 7.71873 64.4057 8.4263 56.5195L17.9035 54.2632ZM14.5372 19.5807C6.51799 30.0886 6.56087 33.5053 5.18861 37.9964L4.45959 40.5535C3.70913 56.0467 4.33094 66.0604 11.5568 77.4708C15.9095 84.3256 19.6189 83.466 25.5582 78.9105C29.8037 75.6442 29.5464 73.259 28.3456 69.9498C26.1371 63.8685 24.4433 59.184 21.3556 53.2747C19.2115 50.2878 16.9815 50.4597 14.2799 51.0829C11.5353 51.7275 9.82001 52.0499 7.18268 53.1028L7.46143 49.8365C7.82593 37.4162 11.6211 29.2291 17.3032 21.5362C21.1841 16.293 30.4898 8.19181 39.3238 6.21487C64.0461 -3.86324 97.8382 13.2846 101.14 46.076C101.59 50.6101 100.54 50.2663 104.056 50.5457C107.573 45.4314 100.518 29.272 98.2241 25.3611C89.7975 10.9423 74.8741 1.16507 57.6136 0.11213C41.1892 -0.897829 24.5719 6.47273 14.5586 19.6022L14.5372 19.5807Z" fill="#292D33"/>
<path fill-rule="evenodd" clip-rule="evenodd" d="M45.1131 7.84791C35.0569 10.534 29.8037 13.6283 23.7357 19.4947C20.0263 23.0833 11.8355 33.8275 12.4573 40.9402C19.4045 42.2725 12.3072 35.8259 26.6732 21.5576C35.1641 13.1341 49.3585 8.40661 61.1729 11.0067C68.9562 12.7258 76.6538 17.1309 80.5133 20.1823C106.265 42.1006 94.0859 83.7238 62.5237 89.7621C56.8202 90.858 54.3759 89.4827 54.3759 92.3192C55.1049 94.3391 53.0465 93.7804 57.4849 93.9738C58.2783 94.0168 61.8805 93.4151 62.7167 93.2432C65.8901 92.6201 68.8919 91.6961 71.7436 90.4497C116.535 70.8092 100.99 -0.317722 45.1131 7.82642V7.84791Z" fill="#292D33"/>
<path fill-rule="evenodd" clip-rule="evenodd" d="M50.6669 56.2402C57.3782 59.9147 64.3896 52.007 59.0078 45.6893C52.4252 41.1982 52.3179 48.8481 44.406 38.1254C48.244 25.8554 31.7125 25.7265 32.5273 35.4178C33.0204 41.1553 37.3731 40.7685 43.0766 40.747C44.1272 42.1437 48.0939 45.8827 48.3727 46.9142C48.3727 46.9142 46.1642 52.9739 50.6669 56.2402ZM54.312 46.6348C56.4133 46.6348 58.1072 48.3324 58.1072 50.4383C58.1072 52.5442 56.4133 54.2418 54.312 54.2418C52.2107 54.2418 50.5168 52.5442 50.5168 50.4383C50.5168 48.3324 52.2107 46.6348 54.312 46.6348Z" fill="#292D33"/>
<path fill-rule="evenodd" clip-rule="evenodd" d="M36.3006 37.9749C44.1698 40.3172 43.2478 32.5598 40.3531 31.4639C34.5424 29.2506 34.2851 36.7501 36.3006 37.9749Z" fill="#FDBC0B"/>
<path d="M40.7391 75.2789L43.2907 72.9152C45.2204 71.1316 45.5849 69.9498 45.5849 68.639C45.5849 66.1248 43.4408 64.5347 40.3532 64.5347C37.6944 64.5347 35.7861 65.6521 34.7783 67.3497L37.6086 68.9398C38.1447 68.0803 39.0238 67.629 40.0101 67.629C41.1679 67.629 41.7469 68.1447 41.7469 69.0258C41.7469 69.5845 41.5968 70.2076 40.5247 71.1961L35.4859 75.9236V78.3088H45.9923V75.2789H40.782H40.7391ZM59.6721 72.7003H57.6781V70.401H54.0758V72.7003H51.3313L56.8204 64.814H52.8751L46.8286 73.259V75.7517H53.9472V78.3303H57.6566V75.7517H59.6507V72.7218L59.6721 72.7003ZM59.5006 80.2428H62.7597L69.1065 62.0635H65.8473L59.5006 80.2428ZM68.6991 64.7925V69.9068H71.9582V67.8224H75.4961L70.9505 78.3088H75.1102L79.8702 67.1992V64.814H68.6991V64.7925Z" fill="#292D33"/>
</svg>
