<svg width="108" height="108" viewBox="0 0 108 108" fill="none" xmlns="http://www.w3.org/2000/svg">
<path fill-rule="evenodd" clip-rule="evenodd" d="M32.4005 88.1334C32.9405 80.0064 32.9405 60.2307 36.1805 59.9598C39.6905 58.3344 62.3704 58.3344 68.5804 57.7926V53.1873C67.7704 42.6222 65.6104 39.3714 62.1004 33.9534C58.0504 26.0972 45.3605 18.7829 32.6705 19.5956C19.4405 20.4083 10.2604 27.7226 5.13045 36.1206C-8.90955 59.418 8.91045 88.1334 32.4005 88.1334Z" fill="#F4C53B"/>
<path fill-rule="evenodd" clip-rule="evenodd" d="M36.1804 88.1336V82.4447H103.95C103.95 87.8627 103.95 104.388 103.95 104.388C103.95 104.388 41.8504 104.929 36.1804 103.846V88.1336ZM103.95 72.1504V78.6521L36.1804 78.3812L35.9104 71.8795H103.95V72.1504ZM103.95 61.5853V68.6287L36.1804 68.3578V61.3144L103.95 61.5853ZM32.4004 88.1336C32.4004 107.368 30.5104 107.368 39.1504 107.909C39.4204 107.909 83.4304 107.909 103.95 107.909C107.19 107.638 107.73 108.18 107.73 101.679C107.73 101.679 107.73 74.0468 107.46 64.5652C107.19 57.2509 105.03 58.0636 99.6304 57.7927L37.8004 58.0636C31.8604 58.3345 31.8604 60.7726 31.8604 66.1906V88.4045L32.4004 88.1336Z" fill="#292D33"/>
<path fill-rule="evenodd" clip-rule="evenodd" d="M65.6107 68.6288L67.5007 61.3145H36.1807V68.3579L65.6107 68.6288Z" fill="#F4C53B"/>
<path fill-rule="evenodd" clip-rule="evenodd" d="M68.3102 18.783L61.0202 13.094H56.1602L70.2002 26.0973L85.3202 12.8231H79.9202L72.3602 18.783L71.8202 0.0908203H68.5802L68.3102 18.783Z" fill="#F4C53B"/>
<path fill-rule="evenodd" clip-rule="evenodd" d="M58.5907 78.652C60.2107 76.2139 61.2907 75.1303 63.1807 72.1504H36.1807V78.652H58.5907Z" fill="#F4C53B"/>
<path fill-rule="evenodd" clip-rule="evenodd" d="M36.1807 88.1335C42.6607 88.1335 49.1407 85.6954 52.3807 82.4446H36.1807V88.1335Z" fill="#F4C53B"/>
<path d="M47.5204 30.7026C43.2004 30.7026 39.6904 33.4116 39.6904 37.4751C39.6904 41.2678 42.6604 43.7059 46.4404 43.7059C48.3304 43.7059 49.6804 43.1641 50.7604 42.3514C50.4904 45.3313 48.6004 46.9567 45.9004 46.9567C44.5504 46.9567 43.4704 46.6858 42.3904 45.8731L40.2304 49.9366C41.5804 50.7493 43.7404 51.2911 45.9004 51.2911C52.1104 51.2911 56.4304 47.4985 56.4304 40.4551C56.4304 33.9534 52.9204 30.7026 47.2504 30.7026H47.5204ZM47.7904 39.6424C46.1704 39.6424 45.0904 38.5588 45.0904 37.2042C45.0904 35.5788 46.1704 34.7661 47.7904 34.7661C49.4104 34.7661 50.4904 35.8497 50.4904 37.2042C50.4904 38.8297 49.4104 39.6424 47.7904 39.6424ZM67.2304 51.2911C72.3604 51.2911 75.8704 47.4985 75.8704 40.9969C75.8704 34.4952 72.0904 30.7026 67.2304 30.7026C62.1004 30.7026 58.5904 34.4952 58.5904 40.9969C58.5904 47.4985 62.3704 51.2911 67.2304 51.2911ZM67.2304 46.6858C65.3404 46.6858 64.2604 45.0604 64.2604 40.9969C64.2604 36.9333 65.6104 35.3079 67.2304 35.3079C69.1204 35.3079 70.2004 36.9333 70.2004 40.9969C70.2004 45.0604 68.8504 46.6858 67.2304 46.6858ZM82.6204 41.8096C85.5904 41.8096 87.7504 39.6424 87.7504 36.3915C87.7504 32.8698 85.5904 30.9735 82.6204 30.9735C79.6504 30.9735 77.4904 33.1407 77.4904 36.3915C77.4904 39.9133 79.6504 41.8096 82.6204 41.8096ZM80.7304 50.7493H84.7804L98.2804 30.9735H94.2304L80.7304 50.7493ZM82.6204 39.1006C81.8104 39.1006 81.0004 38.2879 81.0004 36.3915C81.0004 34.4952 81.8104 33.6825 82.6204 33.6825C83.7004 33.6825 84.2404 34.4952 84.2404 36.3915C84.2404 38.2879 83.4304 39.1006 82.6204 39.1006ZM96.6604 51.0202C99.6304 51.0202 101.79 48.853 101.79 45.6022C101.79 42.0805 99.6304 40.1842 96.6604 40.1842C93.6904 40.1842 91.5304 42.3514 91.5304 45.6022C91.5304 49.1239 93.6904 51.0202 96.6604 51.0202ZM96.6604 48.3112C95.8504 48.3112 95.0404 47.4985 95.0404 45.6022C95.0404 43.7059 95.8504 42.8932 96.6604 42.8932C97.4704 42.8932 98.2804 43.7059 98.2804 45.6022C98.2804 47.4985 97.4704 48.3112 96.6604 48.3112Z" fill="#292D33"/>
</svg>
