<svg width="34" height="26" viewBox="0 0 34 26" fill="none" xmlns="http://www.w3.org/2000/svg">
<path d="M2.96851 2.21062C1.03726 4.26187 0.000389099 6.5625 0.000389099 10.2919C0.000389099 16.8544 4.60726 22.7362 11.3066 25.6444L12.981 23.0606C6.72789 19.6781 5.50539 15.2888 5.01789 12.5213C6.02477 13.0425 7.34289 13.2244 8.63476 13.1044C12.0173 12.7913 14.6835 10.0144 14.6835 6.5625C14.6835 4.82202 13.9921 3.15282 12.7614 1.92211C11.5307 0.691405 9.8615 0 8.12101 0C6.10914 0 4.18539 0.91875 2.96851 2.21062ZM21.7185 2.21062C19.7873 4.26187 18.7504 6.5625 18.7504 10.2919C18.7504 16.8544 23.3573 22.7362 30.0566 25.6444L31.731 23.0606C25.4779 19.6781 24.2554 15.2888 23.7679 12.5213C24.7748 13.0425 26.0929 13.2244 27.3848 13.1044C30.7673 12.7913 33.4316 10.0144 33.4316 6.5625C33.4316 4.82202 32.7402 3.15282 31.5095 1.92211C30.2788 0.691405 28.6096 0 26.8691 0C24.8573 0 22.9335 0.91875 21.7166 2.21062H21.7185Z" fill="#292D33"/>
</svg>
