<svg width="104" height="96" viewBox="0 0 104 96" fill="none" xmlns="http://www.w3.org/2000/svg">
<path fill-rule="evenodd" clip-rule="evenodd" d="M78.9207 79.7268C77.7596 82.788 78.1577 90.3079 79.1861 93.5355L95.2754 93.968C97.3985 86.681 96.2374 80.0928 96.0052 79.8599C93.3845 77.1647 94.8441 78.5289 93.9816 77.9965C92.8869 75.9668 90.6642 73.3715 88.0767 71.9407C86.5838 72.7725 79.3851 77.2978 78.9207 79.7268Z" fill="#F4C53B"/>
<path d="M32.2118 64.6203C50.0019 64.6203 64.4236 50.155 64.4236 32.3112C64.4236 14.4674 50.0019 0.00219727 32.2118 0.00219727C14.4217 0.00219727 0 14.4674 0 32.3112C0 50.155 14.4217 64.6203 32.2118 64.6203Z" fill="#F4C53B"/>
<path fill-rule="evenodd" clip-rule="evenodd" d="M32.2113 73.6043L50.5565 73.3714L50.5233 91.8052L32.4104 91.7386L32.2113 73.6043ZM54.5042 51.1111L72.8493 51.0446L72.5839 69.3453L54.5373 69.2787L54.5042 51.0778V51.1111ZM32.2113 51.1111L50.4901 51.2109L50.3242 69.5116L32.2445 69.312L32.2113 51.1444V51.1111ZM78.3561 28.751L78.3893 36.2044H89.7016L89.6684 28.9174L95.1089 28.7843L94.8435 47.1848L32.145 47.0517L32.2777 28.8841L37.486 28.8176L37.7845 36.1711L48.4333 36.1046L48.4997 28.7177H78.3893L78.3561 28.751ZM86.3179 33.1432L81.9057 33.1099V21.6304L86.0857 21.6637L86.3179 33.1432ZM40.8034 33.2763L40.5048 21.2976H44.552L44.7179 33.3761L40.8034 33.2763ZM28.2968 95.7648L68.9016 95.8646V91.8385L54.5705 91.6721L54.1061 73.5378H76.4321L76.6311 51.344L94.9762 51.0778L94.9431 62.3244L98.1278 62.8236L98.9239 24.8247L89.8011 24.7581L89.6021 17.4046L78.2898 17.3713L78.1903 24.8247L48.4665 24.6916L48.2343 17.2715L37.5855 17.3713L37.486 24.858L28.2968 25.0243L28.2305 95.6982L28.2968 95.7648Z" fill="#292D33"/>
<path fill-rule="evenodd" clip-rule="evenodd" d="M95.0765 81.8229L94.977 92.5371L80.1815 92.6037L80.2147 80.126L88.11 71.9406L94.015 77.9964L88.11 83.4866L82.2383 80.9578L88.11 88.511L95.0765 81.8229ZM88.11 66.9827L73.3809 81.0576L76.3997 82.2222L76.7646 96.0309L99.6545 95.9976V82.7879L104 82.322L88.11 66.9495V66.9827Z" fill="#292D33"/>
<path fill-rule="evenodd" clip-rule="evenodd" d="M66.3476 47.1182L94.844 47.1848L95.1094 28.7842L89.6688 28.9173L89.702 36.2043H78.3897L78.3566 28.751L70.1626 28.9173C71.2574 38.5335 68.2385 40.3969 66.3145 47.0849L66.3476 47.1182Z" fill="#FDFDFD"/>
</svg>
