<svg width="111" height="100" viewBox="0 0 111 100" fill="none" xmlns="http://www.w3.org/2000/svg">
<path d="M80.9202 60.0497C97.5331 60.0497 111 46.6091 111 30.0292C111 13.4494 97.5331 0.00878906 80.9202 0.00878906C64.3073 0.00878906 50.8398 13.4494 50.8398 30.0292C50.8398 46.6091 64.3073 60.0497 80.9202 60.0497Z" fill="#F4C53B"/>
<path fill-rule="evenodd" clip-rule="evenodd" d="M27.6006 56.9131L40.5135 66.5786L43.1432 62.3539L30.8288 53.926L27.6006 56.9131Z" fill="#F4C53B"/>
<path fill-rule="evenodd" clip-rule="evenodd" d="M85.9223 46.949H81.4327L81.1334 80.9807L7.65359 80.9593L21.721 57.5745L17.3597 54.2674L4.55363 75.2411L4.8957 34.7231L67.9853 34.3391V30.2852L0.0212737 30.3705L-0.0214844 85.4613L38.867 85.5467L32.6243 92.3103L22.512 95.3615V99.9701H36.7932C36.9856 97.9432 35.0188 92.3744 44.1049 87.6803L50.9675 94.0386C50.0696 95.9375 49.4924 97.1111 49.8986 99.9701H63.9446L63.8163 95.8522L54.8585 91.8623C52.6565 89.5793 50.6682 88.0217 49.022 85.504L85.9436 85.0773L85.9009 46.9063L85.9223 46.949Z" fill="#292D33"/>
<path fill-rule="evenodd" clip-rule="evenodd" d="M55.9489 55.9956L52.4427 60.2202C49.6207 60.1562 44.0622 59.068 41.4967 64.0608C36.4726 73.8116 51.6945 80.2765 55.5427 71.0805C57.9585 66.5572 55.4786 65.1276 55.9917 63.57C59.3696 59.4521 67.7074 51.5789 71.748 47.5463L86.243 33.0162V39.9932L89.3644 40.8253L89.2147 26.6152L74.3349 26.7219L74.6342 30.0291H83.0148L55.9062 55.9956H55.9489ZM48.7228 63.3993C51.0959 63.3993 53.02 65.3196 53.02 67.688C53.02 70.0563 51.0959 71.9766 48.7228 71.9766C46.3497 71.9766 44.4256 70.0563 44.4256 67.688C44.4256 65.3196 46.3497 63.3993 48.7228 63.3993Z" fill="#292D33"/>
<path fill-rule="evenodd" clip-rule="evenodd" d="M21.2293 42.7244C11.9508 45.9462 16.2693 60.9671 26.852 57.2119C35.7243 54.0754 31.8547 39.0119 21.2293 42.7244ZM23.9658 45.6902C26.3389 45.6902 28.263 47.6105 28.263 49.9788C28.263 52.3472 26.3389 54.2675 23.9658 54.2675C21.5927 54.2675 19.6686 52.3472 19.6686 49.9788C19.6686 47.6105 21.5927 45.6902 23.9658 45.6902Z" fill="#292D33"/>
</svg>
