<svg width="" height="" viewBox="0 0 25 25" fill="none" xmlns="http://www.w3.org/2000/svg">
<g clip-path="url(#clip0_3401_315)">
<path d="M12.5 25C12.5 25 21.875 16.1156 21.875 9.375C21.875 6.8886 20.8873 4.50403 19.1291 2.74587C17.371 0.98772 14.9864 0 12.5 0C10.0136 0 7.62903 0.98772 5.87087 2.74587C4.11272 4.50403 3.125 6.8886 3.125 9.375C3.125 16.1156 12.5 25 12.5 25ZM12.5 14.0625C11.2568 14.0625 10.0645 13.5686 9.18544 12.6896C8.30636 11.8105 7.8125 10.6182 7.8125 9.375C7.8125 8.1318 8.30636 6.93951 9.18544 6.06044C10.0645 5.18136 11.2568 4.6875 12.5 4.6875C13.7432 4.6875 14.9355 5.18136 15.8146 6.06044C16.6936 6.93951 17.1875 8.1318 17.1875 9.375C17.1875 10.6182 16.6936 11.8105 15.8146 12.6896C14.9355 13.5686 13.7432 14.0625 12.5 14.0625Z" fill="#292D33"/>
</g>
<defs>
<clipPath id="clip0_3401_315">
<rect width="25" height="25" fill="white"/>
</clipPath>
</defs>
</svg>
