<svg width="89" height="100" viewBox="0 0 89 100" fill="none" xmlns="http://www.w3.org/2000/svg">
<g clip-path="url(#clip0_3401_245)">
<path d="M29.9285 59.9121C46.4559 59.9121 59.8541 46.5003 59.8541 29.956C59.8541 13.4118 46.4559 0 29.9285 0C13.4011 0 0.00292969 13.4118 0.00292969 29.956C0.00292969 46.5003 13.4011 59.9121 29.9285 59.9121Z" fill="#F4C53B"/>
<path fill-rule="evenodd" clip-rule="evenodd" d="M55.2131 13.8406C71.5796 15.5802 86.9721 31.409 80.8418 50.6978C75.6855 66.928 62.1455 77.0981 53.3225 86.9433C47.4978 84.0566 34.206 68.4 30.0428 61.0591C23.6261 51.7684 20.666 39.9542 27.5411 28.3694C32.0862 20.7036 41.4821 12.7892 55.2131 13.8406ZM24.9247 60.0842L33.1939 72.2807C33.1939 72.2807 24.0654 75.4923 20.2459 78.876C16.159 82.4891 15.8726 88.1094 20.0549 91.7798C26.1852 97.1708 39.2478 99.5986 49.8468 100C87.8505 100.077 101.219 82.3744 76.2966 74.1924L75.2463 76.6202C75.4564 76.907 82.8279 80.2524 84.3939 83.5214C89.2255 93.5768 59.8156 96.8075 49.8468 96.3296C10.1052 94.8003 17.9924 78.1687 35.5811 76.4099L52.1385 92.143C60.5986 88.7976 81.8349 63.8884 85.1769 48.9582C89.3592 30.2046 75.2272 9.92167 50.6871 10.0364C36.8415 10.801 29.7755 17.2052 24.199 26.7827C17.3813 38.5395 19.5584 48.9391 24.9247 60.1033V60.0842Z" fill="#292D33"/>
<path fill-rule="evenodd" clip-rule="evenodd" d="M58.3257 43.1276L60.3882 42.2864L60.6364 34.7162C63.501 36.6278 65.4299 40.91 64.0931 45.9568C62.5653 51.6537 58.7649 51.2713 56.8552 55.0564L56.626 61.9385L49.1398 61.7856L49.0443 54.7506C46.9245 51.6919 43.1624 51.2904 41.711 46.0142C40.3168 40.8909 42.303 36.5896 45.3776 34.697L45.5495 42.2291C52.1954 45.2113 51.4506 47.945 58.3448 43.1467L58.3257 43.1276ZM37.0321 60.218C41.7682 63.4487 47.1346 65.1119 52.9784 65.131C57.4663 65.1501 62.2024 64.6531 67.4351 60.5047C78.8553 51.4434 77.2321 34.7735 72.0949 31.0457C66.0792 34.9073 75.3796 35.5955 71.4455 48.1362C69.6695 53.7947 65.7163 58.918 60.4073 60.0842C60.4646 51.5389 67.0914 55.0756 68.0653 44.6378C68.9056 35.7294 64.074 32.5177 60.3309 29.1723L56.9125 28.1591C56.6833 33.2633 58.7267 41.8276 52.501 41.3497C47.2301 40.9482 49.0634 33.0721 48.8534 28.2164C42.9905 29.4208 38.0443 35.0603 37.7387 42.057C37.2613 52.7433 44.5947 52.1889 45.3967 56.8917L45.5304 60.7533C37.605 60.9827 28.8202 46.1098 35.8863 33.2442C38.0634 29.287 40.9662 26.5915 45.4158 24.6607C49.6746 22.8255 56.034 22.3476 59.968 24.8328C62.6226 24.6798 64.3413 24.1446 62.9281 22.08C62.2406 21.0859 58.8604 20.1492 57.81 19.7095C44.1745 19.5565 37.0703 22.8064 32.3342 32.2501C30.0998 36.7043 29.1258 42.6114 30.5772 48.4229C31.9522 53.9094 34.664 58.593 36.9939 60.1606L37.0321 60.218Z" fill="#292D33"/>
<path fill-rule="evenodd" clip-rule="evenodd" d="M58.3258 43.1275C56.4734 48.0597 53.0549 53.0109 49.0254 54.7314L49.1209 61.7664L56.607 61.9194L56.8362 55.0373C58.7459 51.2522 62.5654 51.6345 64.0741 45.9377C65.4109 40.8909 63.4821 36.6278 60.6175 34.697L60.3692 42.2673L58.3067 43.1084L58.3258 43.1275Z" fill="#FBFBFB"/>
</g>
<defs>
<clipPath id="clip0_3401_245">
<rect width="89" height="100" fill="white"/>
</clipPath>
</defs>
</svg>
