<svg width="238" height="45" viewBox="0 0 238 45" fill="none" xmlns="http://www.w3.org/2000/svg">
<path d="M70.8848 18.0006H78.9733C84.4594 18.0006 88.234 14.8733 88.234 9.77081C88.234 4.66831 84.4594 1.54098 78.9733 1.54098H70.8848V18.0006ZM76.4178 13.6741V5.86758H78.7388C81.0598 5.86758 82.6542 7.25484 82.6542 9.77081C82.6542 12.2867 81.0599 13.674 78.7388 13.674H76.4178V13.6741ZM97.2837 18.0006H102.817V1.54098H97.2837V18.0006ZM124.808 18.0006H130.529L123.354 1.54098H117.915L110.741 18.0006H116.368L117.47 15.1319H123.706L124.808 18.0006ZM118.994 11.1346L120.588 6.99624L122.182 11.1346H118.994ZM158.147 18.0006L158.1 1.54098H153.551L148.347 10.3117L143.001 1.54098H138.453V18.0006H143.494V10.7584L147.057 16.5192H149.495L153.059 10.4997L153.106 18.0006H158.147H158.147ZM176.457 18.3768C181.803 18.3768 185.718 14.7557 185.718 9.77081C185.718 4.78589 181.803 1.16479 176.457 1.16479C171.112 1.16479 167.196 4.78589 167.196 9.77081C167.196 14.7557 171.112 18.3768 176.457 18.3768ZM176.457 13.8857C174.417 13.8857 172.776 12.3339 172.776 9.77081C172.776 7.20782 174.417 5.65595 176.457 5.65595C178.497 5.65595 180.138 7.20782 180.138 9.77081C180.138 12.3338 178.497 13.8857 176.457 13.8857ZM205.552 1.54098V9.01839L199.316 1.54098H194.768V18.0006H200.16V10.5233L206.396 18.0006H210.945V1.54098H205.552ZM220.651 18.0006H228.739C234.225 18.0006 238 14.8733 238 9.77081C238 4.66831 234.225 1.54098 228.739 1.54098H220.651V18.0006ZM226.184 13.6741V5.86758H228.505C230.826 5.86758 232.42 7.25484 232.42 9.77081C232.42 12.2867 230.826 13.674 228.505 13.674H226.184V13.6741Z" fill="#2B2A29"/>
<path fill-rule="evenodd" clip-rule="evenodd" d="M27.5921 38.5037L15.8532 15.3421L39.3416 15.3322L27.592 38.5037H27.5921ZM41.2843 15.344L51.1821 15.3418L31.4496 34.8819L41.2844 15.344H41.2843ZM23.4851 34.6495L4.00207 15.3518L13.8998 15.3357L23.485 34.6495H23.4851ZM51.1885 13.5687L41.6198 13.569L41.6502 4.04753L51.1885 13.5687L51.1885 13.5687ZM16.6298 13.569L27.5921 2.60882L38.5617 13.5692L16.6298 13.569ZM4.02345 13.5764L13.5434 4.0653L13.5354 13.5688L4.02345 13.5764ZM39.8823 2.58105L39.8713 12.3972L30.24 2.63972L39.8823 2.5811L39.8823 2.58105ZM15.3049 2.58413L24.944 2.6436L15.3119 12.39L15.3049 2.58409V2.58413ZM13.917 0.126829L0 14.553L27.4465 41.9308L55.2226 14.3569L41.3359 0.000488281L13.917 0.126879V0.126829Z" fill="black"/>
<path fill-rule="evenodd" clip-rule="evenodd" d="M27.7217 34.1633L36.4717 17.0886L29.8374 17.1161L27.7217 34.1633Z" fill="black"/>
<path fill-rule="evenodd" clip-rule="evenodd" d="M37.8271 26.1819L46.8508 17.1162L42.4985 17.0857L37.8271 26.1819Z" fill="black"/>
<path fill-rule="evenodd" clip-rule="evenodd" d="M27.6904 5.40894L29.8049 11.8004L34.2489 11.7597L27.6904 5.40894Z" fill="black"/>
<path fill-rule="evenodd" clip-rule="evenodd" d="M38.0705 8.0211L38.1218 4.36204L34.3887 4.30591L38.0705 8.0211Z" fill="black"/>
<path fill-rule="evenodd" clip-rule="evenodd" d="M43.3818 11.8123L46.9106 11.8225L43.4089 8.37158L43.3818 11.8123Z" fill="black"/>
<path d="M77.6187 37.3555C76.9093 37.6809 76.1998 37.8232 75.4497 37.8232C73.0577 37.8232 71.4361 36.1561 71.4361 33.7571C71.4361 31.2971 73.0578 29.6909 75.4903 29.6909C76.8485 29.6909 77.9634 30.1992 78.9364 31.2767L81.4906 28.959C80.0918 27.2717 77.9431 26.3568 75.2876 26.3568C70.686 26.3568 67.3818 29.4267 67.3818 33.7571C67.3818 38.0875 70.686 41.1574 75.2065 41.1574C77.2742 41.1574 79.5242 40.5272 81.1662 39.348V33.4521H77.6187V37.3556V37.3555ZM87.207 31.1751V29.8535H83.5379V40.8727H87.3894V35.8104C87.3894 33.879 88.4639 33.0861 90.0247 33.0861C90.3085 33.0861 90.5518 33.1065 90.8964 33.1471V29.6706C89.2747 29.6706 87.9976 30.1789 87.207 31.1751ZM97.8899 41.0557C101.518 41.0557 104.093 38.6771 104.093 35.3428C104.093 32.029 101.518 29.6706 97.8899 29.6706C94.3019 29.6706 91.6869 32.029 91.6869 35.3428C91.6869 38.6771 94.3018 41.0557 97.8899 41.0557ZM97.8899 37.9858C96.5925 37.9858 95.579 37.0303 95.579 35.3428C95.579 33.6757 96.5925 32.7405 97.8899 32.7405C99.2075 32.7405 100.201 33.6758 100.201 35.3428C100.201 37.0302 99.2075 37.9858 97.8899 37.9858ZM113.58 29.8535V35.1598C113.58 37.0099 112.647 37.7622 111.512 37.7622C110.357 37.7622 109.688 37.0912 109.688 35.3835V29.8535H105.836V36.0137C105.836 39.5106 107.802 41.0557 110.498 41.0557C111.755 41.0557 112.931 40.6084 113.762 39.6936V40.8728H117.431V29.8536H113.58L113.58 29.8535ZM126.817 29.6706C125.378 29.6706 124.303 30.0772 123.573 30.9514V29.8535H119.904V44.8169H123.756V39.8969C124.506 40.6694 125.54 41.0557 126.817 41.0557C129.797 41.0557 132.209 38.86 132.209 35.3632C132.209 31.8663 129.797 29.6706 126.817 29.6706L126.817 29.6706ZM126.006 37.9858C124.709 37.9858 123.695 37.0303 123.695 35.3631C123.695 33.696 124.709 32.7405 126.006 32.7405C127.303 32.7405 128.317 33.696 128.317 35.3631C128.317 37.0302 127.303 37.9858 126.006 37.9858ZM140.074 40.8727H150.858V37.6808H144.088V26.6413H140.074V40.8727V40.8727ZM157.73 41.0557C161.359 41.0557 163.933 38.6771 163.933 35.3428C163.933 32.029 161.359 29.6706 157.73 29.6706C154.142 29.6706 151.527 32.029 151.527 35.3428C151.527 38.6771 154.142 41.0557 157.73 41.0557ZM157.73 37.9858C156.433 37.9858 155.419 37.0303 155.419 35.3428C155.419 33.6757 156.433 32.7405 157.73 32.7405C159.048 32.7405 160.041 33.6758 160.041 35.3428C160.041 37.0302 159.048 37.9858 157.73 37.9858ZM173.866 29.8535V31.1954C173.116 30.1585 171.94 29.6705 170.42 29.6705C167.501 29.6705 165.028 31.7443 165.028 34.9768C165.028 38.2297 167.501 40.3034 170.42 40.3034C171.819 40.3034 172.934 39.8765 173.684 39.0022V39.3682C173.684 41.0963 172.812 42.0315 170.744 42.0315C169.447 42.0315 167.947 41.5842 167.035 40.8523L165.636 43.5563C166.974 44.5118 168.981 44.9997 171.089 44.9997C175.184 44.9997 177.535 43.0276 177.535 38.8599V29.8534H173.866V29.8535ZM171.332 37.2336C169.954 37.2336 168.92 36.3187 168.92 34.9768C168.92 33.6351 169.954 32.7405 171.332 32.7405C172.711 32.7405 173.724 33.6351 173.724 34.9768C173.724 36.3187 172.711 37.2336 171.332 37.2336ZM181.934 28.6337C183.353 28.6337 184.285 27.7391 184.285 26.5193C184.285 25.3604 183.353 24.5269 181.934 24.5269C180.515 24.5269 179.582 25.4214 179.582 26.5803C179.582 27.7391 180.515 28.6337 181.934 28.6337V28.6337ZM180.008 40.8727H183.86V29.8535H180.008V40.8727ZM190.347 41.0557C193.914 41.0557 195.779 39.4699 195.779 37.4369C195.779 33.0624 189.313 34.7058 189.313 33.1844C189.313 32.7778 189.779 32.4152 191.076 32.4152C192.049 32.4152 193.144 32.6151 194.239 33.225L195.394 30.6058C194.299 29.9958 192.597 29.6705 191.056 29.6705C187.61 29.6705 185.704 31.2563 185.704 33.3267C185.704 37.7418 192.191 36.051 192.191 37.5385C192.191 38.0061 191.765 38.2907 190.468 38.2907C189.13 38.2907 187.651 37.9044 186.637 37.2708L185.481 39.9172C186.556 40.5881 188.482 41.0557 190.347 41.0557L190.347 41.0557ZM204.07 37.7215C203.746 37.9451 203.32 38.0671 202.894 38.0671C202.205 38.0671 201.739 37.6198 201.739 36.8066V33.1471H204.253V30.2602H201.739V27.3936H197.887V30.2602H196.286V33.1471H197.887V36.8473C197.887 39.6732 199.529 41.0557 202.347 41.0557C203.361 41.0557 204.354 40.8524 205.023 40.4255L204.07 37.7215V37.7215ZM208.428 28.6337C209.847 28.6337 210.78 27.7391 210.78 26.5193C210.78 25.3604 209.847 24.5269 208.428 24.5269C207.009 24.5269 206.077 25.4214 206.077 26.5803C206.077 27.7391 207.009 28.6337 208.428 28.6337V28.6337ZM206.503 40.8727H210.354V29.8535H206.503V40.8727ZM218.463 41.0557C220.956 41.0557 222.861 39.9375 223.612 38.0264L220.632 36.5016C220.105 37.5385 219.334 37.9858 218.442 37.9858C217.104 37.9858 216.05 37.0505 216.05 35.3427C216.05 33.6757 217.104 32.7405 218.442 32.7405C219.334 32.7405 220.105 33.1877 220.632 34.2246L223.612 32.6998C222.861 30.7887 220.956 29.6705 218.463 29.6705C214.773 29.6705 212.158 32.0289 212.158 35.3427C212.158 38.6973 214.773 41.0556 218.463 41.0556V41.0557ZM229.064 41.0557C232.632 41.0557 234.497 39.4699 234.497 37.4369C234.497 33.0624 228.031 34.7058 228.031 33.1844C228.031 32.7778 228.497 32.4152 229.794 32.4152C230.767 32.4152 231.862 32.6151 232.957 33.225L234.112 30.6058C233.017 29.9958 231.315 29.6705 229.774 29.6705C226.328 29.6705 224.422 31.2563 224.422 33.3267C224.422 37.7418 230.909 36.051 230.909 37.5385C230.909 38.0061 230.483 38.2907 229.186 38.2907C227.848 38.2907 226.368 37.9044 225.355 37.2708L224.199 39.9172C225.274 40.5881 227.2 41.0557 229.065 41.0557L229.064 41.0557Z" fill="#2B2A29"/>
</svg>
