<svg width="" height="" viewBox="0 0 20 16" fill="none" xmlns="http://www.w3.org/2000/svg">
<path d="M0.0680001 1.482L8.943 10.358C9.20555 10.6207 9.55624 10.7767 9.92719 10.7957C10.2981 10.8148 10.6629 10.6955 10.951 10.461L11.065 10.358L19.934 1.488C19.963 1.598 19.982 1.71 19.992 1.825L20 2V14C20.0002 14.5046 19.8096 14.9906 19.4665 15.3605C19.1234 15.7305 18.6532 15.9572 18.15 15.995L18 16H2C1.49542 16.0002 1.00943 15.8096 0.639452 15.4665C0.269471 15.1234 0.0428433 14.6532 0.00500011 14.15L0 14V2C0 1.88 0.00999997 1.764 0.03 1.65L0.0680001 1.482ZM18 0C18.121 0 18.24 0.0100001 18.355 0.0310001L18.525 0.0700002L10.005 8.59L1.482 0.0679998C1.592 0.0379998 1.706 0.0179999 1.822 0.0079999L2 0H18Z" fill="#292D33"/>
</svg>
