<svg width="" height="" viewBox="0 0 23 23" fill="none" xmlns="http://www.w3.org/2000/svg">
<path d="M15.153 16.1238L17.043 14.2338C17.2975 13.9824 17.6196 13.8103 17.9701 13.7384C18.3205 13.6665 18.6844 13.6979 19.0173 13.8288L21.3208 14.7485C21.6573 14.8851 21.9458 15.1182 22.15 15.4185C22.3542 15.7188 22.4649 16.0728 22.4683 16.436V20.6547C22.4663 20.9018 22.4144 21.1458 22.3156 21.3723C22.2168 21.5987 22.0733 21.8028 21.8935 21.9723C21.7138 22.1418 21.5016 22.2731 21.2698 22.3585C21.0379 22.4438 20.7912 22.4813 20.5445 22.4688C4.40358 21.4647 1.14671 7.79597 0.530768 2.56472C0.502176 2.30783 0.5283 2.0478 0.607421 1.80173C0.686542 1.55566 0.816868 1.32913 0.989825 1.13704C1.16278 0.944958 1.37445 0.79167 1.6109 0.687263C1.84735 0.582857 2.10323 0.529698 2.36171 0.531284H6.43702C6.80068 0.532361 7.15571 0.64221 7.45643 0.846703C7.75716 1.0512 7.98983 1.34098 8.12452 1.67878L9.0442 3.98222C9.17942 4.31387 9.21392 4.67801 9.14339 5.02916C9.07286 5.3803 8.90043 5.70288 8.64764 5.9566L6.75764 7.8466C6.75764 7.8466 7.84608 15.2125 15.153 16.1238Z" fill="#292D33"/>
</svg>
