<svg width="108" height="98" viewBox="0 0 108 98" fill="none" xmlns="http://www.w3.org/2000/svg">
<path d="M76.0811 64.1785C93.6932 64.1785 107.971 49.8125 107.971 32.0911C107.971 14.3697 93.6932 0.00366211 76.0811 0.00366211C58.4689 0.00366211 44.1914 14.3697 44.1914 32.0911C44.1914 49.8125 58.4689 64.1785 76.0811 64.1785Z" fill="#F4C53B"/>
<path fill-rule="evenodd" clip-rule="evenodd" d="M10.4135 85.4018L31.0046 65.3657L27.0811 63.8816L10.4135 76.9421L3.51052 72.1335L0 75.2205L10.4135 85.4018Z" fill="#F4C53B"/>
<path fill-rule="evenodd" clip-rule="evenodd" d="M54.4865 17.1604L63.661 45.7452L93.4857 45.6858L69.3251 63.2879L78.5881 91.8133L54.4865 74.1222L30.3849 91.8133L39.6774 63.2879L15.4873 45.6858L45.3414 45.7452L54.4865 17.1604Z" stroke="#292D33" stroke-width="4" stroke-miterlimit="22.9256"/>
</svg>
