<svg width="28" height="20" viewBox="0 0 28 20" fill="none" xmlns="http://www.w3.org/2000/svg">
<path d="M27.4098 3.2602C27.2504 2.66824 26.9384 2.12851 26.5049 1.69503C26.0715 1.26155 25.5317 0.949532 24.9398 0.790195C22.7598 0.200195 13.9998 0.200195 13.9998 0.200195C13.9998 0.200195 5.23978 0.200195 3.05978 0.790195C2.46782 0.949532 1.92809 1.26155 1.49461 1.69503C1.06113 2.12851 0.749112 2.66824 0.589776 3.2602C0.182721 5.48346 -0.0148111 7.74002 -0.000224127 10.0002C-0.0148111 12.2604 0.182721 14.5169 0.589776 16.7402C0.749112 17.3322 1.06113 17.8719 1.49461 18.3054C1.92809 18.7388 2.46782 19.0509 3.05978 19.2102C5.23978 19.8002 13.9998 19.8002 13.9998 19.8002C13.9998 19.8002 22.7598 19.8002 24.9398 19.2102C25.5317 19.0509 26.0715 18.7388 26.5049 18.3054C26.9384 17.8719 27.2504 17.3322 27.4098 16.7402C27.8168 14.5169 28.0144 12.2604 27.9998 10.0002C28.0144 7.74002 27.8168 5.48346 27.4098 3.2602ZM11.1998 14.2002V5.8002L18.4698 10.0002L11.1998 14.2002Z" fill="#292D33"/>
</svg>
